# xmcd
#
# Track frame offsets: 
#        150
#        12188
#        39489
#        72037
#        92432
#        117414
#        149795
#        174996
#        191534
#        209421
#        222996
#        249636
#
# Disc length: 3602 seconds
#
# Revision: 0
# Processed by: cddbd v1.5.1PL0 Copyright (c) Steve Scherf et al.
# Submitted via: ExactAudioCopy v0.95a5
#
DISCID=ad0e100c
DTITLE=Pilgrim - The talking is done
DYEAR=1900
DGENRE=Blues
TTITLE0=Too bad
TTITLE1=Pretending
TTITLE2=The thrill is gone
TTITLE3=Another man
TTITLE4=Is it me
TTITLE5=I shot the sheriff
TTITLE6=What makes me stay
TTITLE7=Reconsider baby
TTITLE8=Long hot night
TTITLE9=Tore down
TTITLE10=White room
TTITLE11=What makes me stay (acoustic)
EXTD=
EXTT0=
EXTT1=
EXTT2=
EXTT3=
EXTT4=
EXTT5=
EXTT6=
EXTT7=
EXTT8=
EXTT9=
EXTT10=
EXTT11=
PLAYORDER=
